<?xml version="1.0" encoding="iso-8859-1"?>
<!-- Generator: Adobe Illustrator 16.0.0, SVG Export Plug-In . SVG Version: 6.00 Build 0)  -->
<!DOCTYPE svg PUBLIC "-//W3C//DTD SVG 1.1//EN" "http://www.w3.org/Graphics/SVG/1.1/DTD/svg11.dtd">
<svg version="1.1" id="Capa_1" xmlns="http://www.w3.org/2000/svg" xmlns:xlink="http://www.w3.org/1999/xlink" x="0px" y="0px"
	viewBox="0 0 512 512" style="enable-background:new 0 0 512 512;" xml:space="preserve">
<g>
	<g>
		<path d="M26.289,2.162c-1.05-1.049-2.754-1.05-3.805,0c-0.707,0.708-0.926,1.711-0.68,2.612l-7.606,7.608l0.175,0.174l1.521,1.521
			l0.174,0.174l7.608-7.607c0.9,0.247,1.902,0.028,2.612-0.68C27.338,4.914,27.337,3.212,26.289,2.162z"/>
		<path d="M7.909,12.176c-0.551,0.551-0.884,1.239-1.041,1.974c-1.969-0.442-3.964-0.012-5.335,1.359
			c-2.31,2.311-1.97,6.396,0.761,9.127l6.533-6.535c-0.377-0.963-0.179-2.103,0.6-2.88c0.78-0.779,1.917-0.978,2.883-0.6
			l2.064-2.064C12.481,10.665,9.587,10.496,7.909,12.176z"/>
		<path d="M13.229,19.023c-0.779,0.779-1.917,0.978-2.882,0.601l-6.534,6.533c2.731,2.731,6.817,3.071,9.128,0.761
			c1.371-1.371,1.802-3.367,1.359-5.334c0.734-0.156,1.422-0.49,1.974-1.041c1.681-1.68,1.51-4.574-0.381-6.463l-2.064,2.063
			C14.207,17.107,14.008,18.245,13.229,19.023z"/>
		<circle cx="22.975" cy="0.693" r="0.693"/>
		<circle cx="21.017" cy="2.652" r="0.693"/>
		<circle cx="27.758" cy="5.476" r="0.692"/>
		<circle cx="25.799" cy="7.435" r="0.693"/>
	</g>
</g>
<g>
</g>
<g>
</g>
<g>
</g>
<g>
</g>
<g>
</g>
<g>
</g>
<g>
</g>
<g>
</g>
<g>
</g>
<g>
</g>
<g>
</g>
<g>
</g>
<g>
</g>
<g>
</g>
<g>
</g>
</svg>
