<?xml version="1.0" encoding="iso-8859-1"?>
<!-- Generator: Adobe Illustrator 19.0.0, SVG Export Plug-In . SVG Version: 6.00 Build 0)  -->
<svg version="1.1" id="Layer_1" xmlns="http://www.w3.org/2000/svg" xmlns:xlink="http://www.w3.org/1999/xlink" x="0px" y="0px"
	viewBox="0 0 512 512" style="enable-background:new 0 0 512 512;" xml:space="preserve">
<g>
	<g>
		<path d="M499.955,12.033c-11.093-11.072-27.179-14.805-42.005-9.92l-76.8,25.621c-11.584,3.861-20.949,11.989-26.432,22.912
			c-5.461,10.944-6.336,23.339-2.475,34.901l2.411,7.275l-98.923,98.923c4.075-24.704,3.371-52.928-26.304-60.715
			c-38.912-10.197-64.619,38.229-87.125,81.045c-3.712,7.083-8.277,15.765-12.096,22.272c-37.995-4.288-72.853,6.997-97.536,31.701
			C8.179,290.561-3.149,324.886,0.755,362.753c3.755,36.203,21.163,71.509,49.088,99.392c27.925,27.904,63.211,45.355,99.413,49.088
			c4.907,0.512,9.749,0.768,14.528,0.768c32.064,0,60.821-11.349,82.155-32.683c24.704-24.683,35.904-59.605,31.723-97.429
			c6.4-3.776,14.955-8.256,22.379-12.16c42.773-22.464,91.264-47.936,80.96-87.104c-7.787-29.76-36.117-30.4-60.821-26.304
			l98.987-98.987l7.957,2.645c4.672,1.579,9.493,2.347,14.272,2.347c6.912,0,13.739-1.6,20.096-4.779
			c10.752-5.376,18.752-14.592,22.528-26.005l25.856-77.504C514.824,39.19,511.006,23.083,499.955,12.033z M443.55,118.059
			c-0.341,1.024-1.92,1.813-2.923,1.451l-7.125-2.368l-38.635-38.656l-2.155-6.464c-0.448-1.344,0.597-3.371,1.941-3.819
			l73.707-24.576L443.55,118.059z"/>
	</g>
</g>
<g>
</g>
<g>
</g>
<g>
</g>
<g>
</g>
<g>
</g>
<g>
</g>
<g>
</g>
<g>
</g>
<g>
</g>
<g>
</g>
<g>
</g>
<g>
</g>
<g>
</g>
<g>
</g>
<g>
</g>
</svg>
