<?xml version="1.0" encoding="iso-8859-1"?>
<!-- Generator: Adobe Illustrator 16.0.0, SVG Export Plug-In . SVG Version: 6.00 Build 0)  -->
<!DOCTYPE svg PUBLIC "-//W3C//DTD SVG 1.1//EN" "http://www.w3.org/Graphics/SVG/1.1/DTD/svg11.dtd">
<svg version="1.1" id="Capa_1" xmlns="http://www.w3.org/2000/svg" xmlns:xlink="http://www.w3.org/1999/xlink" x="0px" y="0px"
	viewBox="0 0 512 512" style="enable-background:new 0 0 512 512;" xml:space="preserve">
<g>
	<path d="M304.381,85.746c-2.846,0.038-28.253,1.13-48.245,24.225L139.165,53.976c0.786-28.499-15.207-45.963-17.116-47.925
		c-7.544-7.797-20.104-8.127-27.882-0.591c-7.782,7.544-8.119,19.821-0.575,27.611c0.307,0.344,7.578,8.704,6.218,22.343
		c-1.759,17.621-16.751,37.562-43.38,57.659c-32.1,24.232-48.712,52.587-49.355,84.278c-1.124,54.617,46.687,95.492,52.15,99.973
		c20.552,16.871,42.21,24.814,47.799,26.686c10.756,4.629,26.397,7.365,43.845,7.365c28.777,0,62.496-7.421,87.434-25.979
		c20.839-15.509,44.143-45.016,36.793-97.577c-4.617-33.041-1.122-57.747,10.103-71.444c8.696-10.598,19.732-11.369,19.809-11.391
		c10.844-0.172,19.476-9.101,19.312-19.933C324.142,94.224,314.945,85.588,304.381,85.746z M80.091,144.413
		c28.409-21.454,46.593-43.753,54.513-66.503l10.111,4.847L50.338,220.382c-2.613-7.161-4.178-14.651-4.027-22.226
		C46.711,179.105,58.071,161.022,80.091,144.413z M58.235,236.62L159.048,89.617l13.152,6.294L79.096,262.5
		C72.513,256.244,64.641,247.199,58.235,236.62z M91.502,272.49l94.892-169.787l10.371,4.961l-82.212,177.269
		C109.278,282.785,100.664,278.786,91.502,272.49z M129.501,290.047l81.427-175.602l14.646,7.011l-62.678,169.949
		C149.794,292.567,137.736,291.811,129.501,290.047z M236.218,213.261c3.812,27.286-3.165,47.123-21.359,60.648
		c-9.806,7.298-21.908,11.946-34.183,14.711l59.121-160.349l3.711,1.775C233.943,151.432,231.474,179.281,236.218,213.261z"/>
</g>
<g>
</g>
<g>
</g>
<g>
</g>
<g>
</g>
<g>
</g>
<g>
</g>
<g>
</g>
<g>
</g>
<g>
</g>
<g>
</g>
<g>
</g>
<g>
</g>
<g>
</g>
<g>
</g>
<g>
</g>
</svg>
