<?xml version="1.0" encoding="iso-8859-1"?>
<!-- Generator: Adobe Illustrator 16.0.0, SVG Export Plug-In . SVG Version: 6.00 Build 0)  -->
<!DOCTYPE svg PUBLIC "-//W3C//DTD SVG 1.1//EN" "http://www.w3.org/Graphics/SVG/1.1/DTD/svg11.dtd">
<svg version="1.1" id="Capa_1" xmlns="http://www.w3.org/2000/svg" xmlns:xlink="http://www.w3.org/1999/xlink"  x="0px" y="0px"
	viewBox="0 0 512 512" style="enable-background:new 0 0 512 512;" xml:space="preserve">
<g>
	<g>
		<path d="M131.748,310.345L99.861,412.058c0,0,61.626,0.429,61.193,62.916c0,0,55.166-14.65,66.367-68.943
			c11.205-54.293,10.345-87.062,54.729-104.73c44.391-17.673,45.685-27.575,53.436-47.407c7.649-19.541-81.748,51.238-61.622-28.004
			l119.012-119.017c5.398-1.923,11.109-1.751,15.794,0.667l1.395-1.391c4.38-10.73,12.274-22.6,23.23-33.552
			c10.952-10.952,22.831-18.855,33.562-23.237c0,0,2.108-2.12,4.721-4.727c2.608-2.607,1.03-8.425-3.53-12.982L441.313,4.818
			c-4.561-4.562-10.343-6.165-12.932-3.588l-4.669,4.668c-4.364,10.772-12.291,22.704-23.299,33.708
			c-11.009,11.008-22.938,18.937-33.711,23.303l-0.958,0.954c3.402,5.412,3.495,12.515,0.569,18.913l-101.275,101.27
			c-13.982,3.107-45.389,3.767-9.169-67.638c0,0-24.133-11.205-49.991,49.127c-25.859,60.33-57.747,56.884-97.823,66.8
			c-40.076,9.919-93.088,18.105-106.018,90.5C2.029,322.844,61.073,287.069,131.748,310.345z"/>
	</g>
</g>
<g>
</g>
<g>
</g>
<g>
</g>
<g>
</g>
<g>
</g>
<g>
</g>
<g>
</g>
<g>
</g>
<g>
</g>
<g>
</g>
<g>
</g>
<g>
</g>
<g>
</g>
<g>
</g>
<g>
</g>
</svg>
