<?xml version="1.0" encoding="iso-8859-1"?>
<!-- Generator: Adobe Illustrator 19.0.0, SVG Export Plug-In . SVG Version: 6.00 Build 0)  -->
<svg version="1.1" id="Layer_1" xmlns="http://www.w3.org/2000/svg" xmlns:xlink="http://www.w3.org/1999/xlink" x="0px" y="0px"
	viewBox="0 0 512 512" style="enable-background:new 0 0 512 512;" xml:space="preserve">
<g>
	<g>
		<g>
			<path d="M489.739,133.565H340.102c7.725-13.245,21.927-22.261,38.333-22.261c49.108,0,89.044-39.936,89.044-89.043
				C467.478,9.973,457.528,0,445.217,0s-22.261,9.973-22.261,22.261c0,24.554-19.968,44.522-44.522,44.522
				c-41.383,0-75.932,28.494-85.882,66.783H22.261C9.951,133.565,0,143.538,0,155.826v155.826h512V155.826
				C512,143.538,502.049,133.565,489.739,133.565z M133.565,267.13h-22.261c-12.31,0-22.261-9.973-22.261-22.261
				c0-12.288,9.951-22.261,22.261-22.261h22.261c12.31,0,22.261,9.973,22.261,22.261C155.826,257.158,145.875,267.13,133.565,267.13
				z M222.609,267.13h-22.261c-12.31,0-22.261-9.973-22.261-22.261c0-12.288,9.951-22.261,22.261-22.261h22.261
				c12.31,0,22.261,9.973,22.261,22.261C244.87,257.158,234.919,267.13,222.609,267.13z M311.652,267.13h-22.261
				c-12.31,0-22.261-9.973-22.261-22.261c0-12.288,9.951-22.261,22.261-22.261h22.261c12.31,0,22.261,9.973,22.261,22.261
				C333.913,257.158,323.962,267.13,311.652,267.13z M400.696,267.13h-22.261c-12.31,0-22.261-9.973-22.261-22.261
				c0-12.288,9.951-22.261,22.261-22.261h22.261c12.31,0,22.261,9.973,22.261,22.261C422.957,257.158,413.006,267.13,400.696,267.13
				z"/>
			<path d="M445.217,422.957c0,12.288-9.951,22.261-22.261,22.261c-12.31,0-22.261-9.973-22.261-22.261v-66.783h-22.261v66.783
				c0,12.288-9.951,22.261-22.261,22.261c-12.31,0-22.261-9.973-22.261-22.261v-66.783h-22.261v66.783
				c0,12.288-9.951,22.261-22.261,22.261s-22.261-9.973-22.261-22.261v-66.783H244.87v66.783c0,12.288-9.951,22.261-22.261,22.261
				s-22.261-9.973-22.261-22.261v-66.783h-22.261v66.783c0,12.288-9.951,22.261-22.261,22.261c-12.31,0-22.261-9.973-22.261-22.261
				v-66.783h-22.261v66.783c0,12.288-9.951,22.261-22.261,22.261c-12.31,0-22.261-9.973-22.261-22.261v-66.783H0v115.378
				C0,493.857,18.12,512,40.426,512h431.149C493.88,512,512,493.857,512,471.552V356.174h-66.783V422.957z"/>
		</g>
	</g>
</g>
<g>
</g>
<g>
</g>
<g>
</g>
<g>
</g>
<g>
</g>
<g>
</g>
<g>
</g>
<g>
</g>
<g>
</g>
<g>
</g>
<g>
</g>
<g>
</g>
<g>
</g>
<g>
</g>
<g>
</g>
</svg>
